<svg width="40" height="28" viewBox="0 0 40 28" fill="none" xmlns="http://www.w3.org/2000/svg">
<path d="M40 4.17393C40 2.39133 38.5652 0.956543 36.7826 0.956543H3.21739C1.43478 0.956543 0 2.39133 0 4.17393V23.8696C0 25.6087 1.43478 27.0435 3.21739 27.0435H36.8261C38.6087 27.0435 40.0435 25.6087 40.0435 23.8261V4.17393H40ZM36.5217 4.4348V7.47828H3.47826V4.4348H36.5217ZM3.47826 23.5652V12.6957H36.5217V23.5652H3.47826ZM33.2609 17.9131C33.2609 18.8696 32.4783 19.6522 31.5217 19.6522H23.2609C22.3043 19.6522 21.5217 18.8696 21.5217 17.9131C21.5217 16.9565 22.3043 16.1739 23.2609 16.1739H31.5217C32.4783 16.1739 33.2609 16.9565 33.2609 17.9131Z" fill="#EB5757"/>
</svg>
